<?xml version="1.0" encoding="UTF-8"?>
<!DOCTYPE svg PUBLIC "-//W3C//DTD SVG 1.1//EN" "http://www.w3.org/Graphics/SVG/1.1/DTD/svg11.dtd">
<!-- Creator: CorelDRAW 2018 (64-Bit) -->
<svg xmlns="http://www.w3.org/2000/svg" xml:space="preserve" width="210mm" height="297mm" version="1.1" style="shape-rendering:geometricPrecision; text-rendering:geometricPrecision; image-rendering:optimizeQuality; fill-rule:evenodd; clip-rule:evenodd"
viewBox="0 0 21000 29700"
 xmlns:xlink="http://www.w3.org/1999/xlink">
 <defs>
  <style type="text/css">
   <![CDATA[
    .fil2 {fill:#979896}
    .fil1 {fill:#7F2E49}
    .fil0 {fill:#464746}
   ]]>
  </style>
 </defs>
 <g id="图层_x0020_1">
  <metadata id="CorelCorpID_0Corel-Layer"/>
  <g id="_1621906832176">
   <g>
    <path class="fil0" d="M7595.45 16976.11l-251.11 -339.64 -153 0 0 339.64 -160.89 0 0 -853.24 404.13 0c201.56,0 302.16,86.97 302.16,260.76 2.68,150.01 -70.65,233.11 -219.63,248.79l266.68 343.69 -188.34 0zm-404.11 -746.55l0 300.2 207.91 0c117.86,2.7 174.11,-44.83 168.75,-142.25 2.68,-107.89 -53.57,-160.65 -168.75,-157.95l-207.91 0zm1268.46 493.71l-474.76 0c15.74,110.74 86.38,167.38 211.93,169.91 94.08,0 179.13,-39.44 254.97,-118.5l0 110.58c-57.59,71.13 -154.34,106.69 -290.28,106.69 -217.13,-7.92 -330.97,-109.23 -341.35,-304.25 5.2,-213.22 111.16,-323.8 317.74,-331.73 217.13,-2.69 324.43,119.85 321.75,367.3zm-474.76 -102.65l317.91 0c-5.35,-102.66 -58.94,-155.42 -160.88,-157.94 -89.06,2.52 -141.29,55.28 -157.03,157.94zm581.79 351.61l0 -900.77 160.87 0 0 900.77 -160.87 0zm291.47 3.88l0 -604.46 160.89 0 0 604.46 -160.89 0zm0 -710.99l0 -138.38 160.89 0 0 138.38 -160.89 0zm703.33 628.06l0 -209.36 -149.16 0c-115.01,0 -171.26,38.27 -168.74,114.62 -2.52,63.21 48.37,94.74 153.01,94.74l164.89 0zm-141.3 -312.01l141.3 0c2.51,-86.97 -44.54,-129.11 -141.3,-126.42 -91.56,-2.69 -147.8,32.87 -168.74,106.53l-125.55 0c36.65,-139.56 134.77,-208 294.29,-205.31 167.41,0 251.11,72.32 251.11,217.29l0 418.69 -278.56 0c-177.78,0 -266.84,-61.86 -266.84,-185.58 2.68,-150.19 100.78,-225.2 294.29,-225.2zm369.86 394.94l0 -616.26 325.77 0c172.59,-2.52 257.63,76.37 254.95,237l0 379.26 -160.89 0 0 -375.21c0,-92.21 -45.69,-138.22 -137.25,-138.22l-121.71 0 0 513.43 -160.87 0zm1311.66 -406.9l-160.87 0c-23.43,-71.14 -73.16,-106.53 -148.99,-106.53 -102.12,5.23 -154.35,77.53 -157.03,217.27 2.68,142.1 71.97,214.57 207.92,217.27 81.19,0 167.41,-47.53 258.97,-142.26l0 122.37c-70.64,79.06 -171.25,118.67 -302.16,118.67 -209.26,-10.63 -319.09,-115.97 -329.47,-316.05 2.52,-208.16 109.84,-316.05 321.77,-323.98 164.73,2.54 268.01,73.68 309.86,213.24zm719.06 154.06l-474.76 0c15.74,110.74 86.38,167.38 211.92,169.91 94.08,0 179.14,-39.44 254.96,-118.5l0 110.58c-57.58,71.13 -154.34,106.69 -290.28,106.69 -217.11,-7.92 -330.95,-109.23 -341.33,-304.25 5.19,-213.22 111.16,-323.8 317.72,-331.73 217.14,-2.69 324.45,119.85 321.77,367.3zm-474.76 -102.65l317.9 0c-5.36,-102.66 -58.93,-155.42 -160.87,-157.94 -89.06,2.52 -141.29,55.28 -157.03,157.94zm1154.47 355.49l-196.2 -849.37 164.73 0 137.27 683.5 157.03 -683.5 184.48 0 164.73 683.5 125.55 -683.5 168.74 0 -200.21 849.37 -184.32 0 -164.89 -647.78 -164.73 647.78 -192.18 0zm974.17 0l0 -604.46 160.89 0 0 604.46 -160.89 0zm0 -710.99l0 -138.38 160.89 0 0 138.38 -160.89 0zm271.74 612.21l0 -126.42c91.58,105.35 187.02,156.76 286.44,154.24 83.72,2.52 124.23,-25.12 121.53,-83.1 2.7,-44.68 -37.81,-76.36 -121.53,-94.73 -180.46,-34.23 -270.86,-100.13 -270.86,-197.56 10.55,-108.04 95.59,-165.86 255.14,-173.79 151.65,5.24 241.89,68.45 270.68,189.63l-141.28 0c-15.58,-57.98 -56.25,-85.62 -121.54,-82.92 -65.46,0 -99.44,22.25 -102.12,67.08 -2.52,47.38 44.53,77.71 141.29,90.86 164.89,28.99 248.61,96.08 251.11,201.43 2.68,118.49 -90.24,176.48 -278.56,173.95 -115,0 -211.94,-39.61 -290.3,-118.67zm1087.86 15.85l0 -430.5 -82.36 0c-136.11,-2.7 -202.73,69.78 -200.04,217.27 0,142.1 65.29,213.23 196.2,213.23l86.2 0zm-117.69 -537.21l117.69 0 0 -288.39 160.89 0 0 924.37 -278.58 0c-222.31,2.71 -332.13,-101.3 -329.61,-312 0,-216.09 109.98,-323.98 329.61,-323.98zm707.35 537.21c104.63,0 157.03,-71.13 157.03,-213.23 -2.68,-142.26 -54.91,-214.75 -157.03,-217.27 -99.44,2.52 -150.33,75.01 -153.01,217.27 2.68,136.87 53.57,208 153.01,213.23zm0 98.77c-201.38,-10.45 -307.36,-114.62 -317.74,-312 7.88,-208.16 115,-316.05 321.76,-323.98 203.9,7.93 309.87,114.46 317.73,319.93 -5.18,202.79 -112.5,308.13 -321.75,316.05zm424.76 -15.84l0 -616.26 706.28 0c162.23,-2.52 241.91,67.26 239.39,209.36l0 406.9 -160.85 0 0 -391.06c0,-81.59 -43.21,-122.37 -129.59,-122.37l-101.96 0 0 513.43 -160.87 0 0 -398.97c0,-76.37 -39.17,-114.46 -117.69,-114.46l-113.82 0 0 513.43 -160.89 0zm1511.54 -359.37l0 -490 160.89 0 0 525.57c0,160.63 69.3,240.87 207.92,240.87 143.81,5.22 213.11,-75.01 207.91,-240.87l0 -525.57 160.89 0 0 482.07c13.04,268.52 -111.16,396.29 -372.82,383.14 -248.43,5.23 -369.96,-119.84 -364.79,-375.21zm872.07 359.37l0 -616.26 325.77 0c172.61,-2.52 257.63,76.37 254.97,237l0 379.26 -160.89 0 0 -375.21c0,-92.21 -45.7,-138.22 -137.26,-138.22l-121.7 0 0 513.43 -160.89 0zm707.5 0l0 -604.46 160.89 0 0 604.46 -160.89 0zm0 -710.99l0 -138.38 160.89 0 0 138.38 -160.89 0zm589.48 628.06c104.63,0 157.03,-71.13 157.03,-213.23 -2.68,-142.26 -54.91,-214.75 -157.03,-217.27 -99.44,2.52 -150.33,75.01 -153.01,217.27 2.68,136.87 53.57,208 153.01,213.23zm0 98.77c-201.38,-10.45 -307.36,-114.62 -317.74,-312 7.88,-208.16 115,-316.05 321.76,-323.98 203.91,7.93 309.87,114.46 317.75,319.93 -5.2,202.79 -112.5,308.13 -321.77,316.05zm424.78 -15.84l0 -616.26 325.76 0c172.6,-2.52 257.64,76.37 254.96,237l0 379.26 -160.89 0 0 -375.21c0,-92.21 -45.69,-138.22 -137.26,-138.22l-121.7 0 0 513.43 -160.87 0z"/>
    <path class="fil0" d="M7987.16 13956.93l0 -293.25 1976.59 0 0 293.25 -816.1 0c-8.71,84.88 -21.22,157.24 -38.07,216.54l790.51 0 0 1058.21c8.17,280.74 -114.79,412.41 -369.96,395.53l-190.97 0 0 -114.79 -306.31 0 0 -1045.7 -152.88 0 0 1045.7 -318.83 0 0 -1045.7 -165.92 0 0 1173.01 -369.98 0 0 -1466.26 650.72 0c16.85,-68 25.02,-140.37 25.02,-216.54l-713.82 0zm-943.4 -778l0 -318.83 892.26 0 0 318.83 -216.54 0 0 663.21 191.52 0 0 306.31 -191.52 0 0 803.04c68,-25.57 148.54,-50.6 242.12,-76.17l0 305.76c-229.61,110.45 -548.43,191.52 -956.48,242.1l0 -356.89 280.74 -25.58 0 -892.26 -229.59 0 0 -306.31 229.59 0 0 -663.21 -242.1 0zm1007.06 331.32l0 -701.3 408.04 0 0 408.05 280.74 0 0 -510.33 433.62 0 0 510.33 127.31 0c110.45,8.72 161.6,-42.43 152.9,-152.88l0 -255.17 395.53 0 0 318.83c16.86,263.33 -110.45,391.19 -382.49,382.47l-1415.65 0zm1479.31 956.47l-178.45 0 0 867.24 51.15 0c93.58,8.71 136.01,-29.91 127.3,-114.79l0 -752.45zm1024.34 -1287.79l0 -318.83 1274.74 0 0 318.83 -127.31 0 0 1619.67c25.57,0 63.66,-8.71 114.79,-25.56 25.58,-8.71 46.79,-13.06 63.67,-13.06l0 306.31c-59.31,25.57 -119.16,42.43 -178.46,50.6l0 522.84 -369.96 0 0 -446.13c-195.33,51.14 -463,81.06 -803.04,89.22l0 -356.9c51.14,0 101.73,0 152.88,0l0 -1746.99 -127.31 0zm1338.4 229.59l0 -306.32 165.94 0c0,-8.15 -4.36,-25.57 -12.51,-51.13 -42.98,-110.45 -68.01,-212.18 -76.72,-305.76l420.57 0c17.4,127.3 46.79,246.46 89.22,356.89l293.8 0c50.6,-101.73 80.52,-216.52 89.22,-344.38l420.57 0c-25.57,136.01 -55.5,250.8 -89.23,344.38l216.54 0 0 306.32 -560.93 0 0 612.07 637.64 0 0 318.83 -624.59 0c33.74,391.17 242.12,722.51 624.59,994.54l0 306.32c-416.75,-187.16 -705.66,-433.62 -867.24,-739.94 -144.18,288.9 -420.56,535.91 -828.6,739.94l0 -306.32c365.59,-280.73 565.27,-612.07 599.01,-994.54l-573.46 0 0 -318.83 586.51 0 0 -612.07 -510.33 0zm-841.13 1491.82c101.74,-16.87 195.32,-29.91 280.2,-38.08l0 -369.96 -280.2 0 0 408.04zm0 -1071.27l0 369.98 280.2 0 0 -369.98 -280.2 0zm0 -650.14l0 356.89 280.2 0 0 -356.89 -280.2 0zm3153.26 1236.65l0 -816.1c-8.15,0 -25.56,4.35 -51.13,13.07 -25.03,0 -46.26,3.79 -63.66,12.51l0 -267.69c204.03,-136.01 340.04,-331.87 408.04,-586.5l484.77 0 -63.66 152.88 408.06 0 0 -204.02 510.33 0 0 204.02 1121.87 0 0 242.12 -1121.87 0 0 165.94 1121.87 0 0 242.1 -1121.87 0 0 179.01 1121.87 0 0 229.58 -1121.87 0 0 190.97 1121.87 0 0 242.11 -1121.87 0 0 217.09 1173 0 0 267.67 -484.75 0c85.41,204.03 250.8,348.75 497.27,433.62l0 280.74c-526.66,-110.98 -858.54,-348.74 -994.55,-714.36l-190.97 0 0 726.87 -510.33 0 0 -726.87 -254.63 0c-127.86,365.62 -454.83,603.38 -982.03,714.36l0 -280.74c246.46,-84.87 412.4,-229.59 497.26,-433.62l-484.75 0 0 -267.67 1224.15 0 0 -217.09 -1122.42 0zm484.77 -433.08l0 190.97 637.65 0 0 -190.97 -637.65 0zm0 -408.59l0 179.01 637.65 0 0 -179.01 -637.65 0zm114.8 -408.04c-33.73,59.85 -71.82,114.79 -114.8,165.94l637.65 0 0 -165.94 -522.85 0zm2886.12 2410.2l0 -2779.63 2805.22 0 0 2294.87c16.85,340.04 -148.54,501.63 -497.29,484.76l-2307.93 0zm497.28 -293.25l1632.2 0c127.31,8.71 187.16,-51.14 178.45,-178.45l0 -1989.1 -1810.65 0 0 2167.55zm89.22 -1491.83l0 -293.25 968.99 0 0 -267.68 459.19 0 0 267.68 204.02 0 0 293.25 -204.02 0 0 918.39c8.71,305.76 -131.66,454.83 -421.1,446.13l-305.77 0 0 -293.25 114.8 0c110.45,8.7 161.58,-38.09 152.88,-140.37l0 -930.9 -63.66 0c-68.01,628.94 -361.26,1079.44 -879.76,1351.46l0 -318.81c263.34,-272.04 408.07,-615.89 433.62,-1032.65l-459.19 0z"/>
   </g>
   <g>
    <polygon class="fil1" points="236.15,14860.54 1852.9,12577.59 3131.76,12577.59 1515.01,14860.54 3131.76,17143.49 1852.9,17143.49 "/>
    <polygon class="fil2" points="1904.12,14860.54 3520.86,12577.59 4799.72,12577.59 3182.97,14860.54 4799.72,17143.49 3520.86,17143.49 "/>
    <polygon class="fil2" points="6522.41,14860.54 5243.55,14860.54 3626.81,17143.49 4905.66,17143.49 "/>
    <polygon class="fil1" points="5747.71,13594.9 4468.84,13594.9 3576.23,14855.34 4215.66,15758.26 "/>
   </g>
  </g>
 </g>
</svg>
